<svg width="1024" height="227" viewBox="0 0 1024 227" fill="none" xmlns="http://www.w3.org/2000/svg">
<path d="M911.423 177.813C905.034 177.813 899.144 176.172 893.752 172.89C888.419 169.608 884.141 165.242 880.917 159.791C877.752 154.282 876.17 148.245 876.17 141.681V133.418C876.17 132.773 876.463 132.451 877.049 132.451H897.269C897.738 132.451 897.972 132.773 897.972 133.418V141.681C897.972 145.608 899.291 149.007 901.928 151.879C904.566 154.692 907.73 156.099 911.423 156.099C915.174 156.099 918.368 154.663 921.005 151.791C923.642 148.861 924.961 145.491 924.961 141.681C924.961 137.286 922.089 133.447 916.346 130.165C915.408 129.579 914.177 128.875 912.653 128.055C911.188 127.176 909.43 126.179 907.379 125.066C905.327 123.952 903.335 122.868 901.401 121.813C899.467 120.7 897.591 119.645 895.774 118.648C889.21 114.78 884.316 109.945 881.093 104.143C877.928 98.2821 876.346 91.7179 876.346 84.4505C876.346 77.7692 877.987 71.7326 881.269 66.3407C884.551 61.0073 888.829 56.7875 894.104 53.6813C899.437 50.5165 905.21 48.9341 911.423 48.9341C917.811 48.9341 923.672 50.5165 929.005 53.6813C934.338 56.9048 938.587 61.1831 941.752 66.5165C944.976 71.8498 946.587 77.8278 946.587 84.4505V99.2198C946.587 99.6886 946.353 99.9231 945.884 99.9231H925.664C925.196 99.9231 924.961 99.6886 924.961 99.2198L924.785 84.4505C924.785 80.2308 923.467 76.8022 920.829 74.1648C918.192 71.5275 915.056 70.2088 911.423 70.2088C907.73 70.2088 904.566 71.6154 901.928 74.4286C899.291 77.2418 897.972 80.5824 897.972 84.4505C897.972 88.3773 898.793 91.6593 900.434 94.2967C902.133 96.9341 905.21 99.4542 909.664 101.857C910.133 102.092 911.218 102.678 912.917 103.615C914.617 104.553 916.492 105.608 918.544 106.78C920.653 107.894 922.558 108.919 924.258 109.857C925.957 110.736 926.983 111.264 927.335 111.44C933.313 114.78 938.031 118.883 941.489 123.747C945.005 128.612 946.763 134.59 946.763 141.681C946.763 148.538 945.181 154.692 942.016 160.143C938.793 165.593 934.514 169.901 929.181 173.066C923.848 176.231 917.928 177.813 911.423 177.813Z" fill="#A78BFA"/>
<path d="M811.15 176.055H790.842C790.315 176.055 790.051 175.762 790.051 175.176V72.4945H766.667C766.081 72.4945 765.787 72.2015 765.787 71.6154L765.963 51.4835C765.963 51.0146 766.198 50.7802 766.667 50.7802H835.062C835.707 50.7802 836.029 51.0146 836.029 51.4835V71.6154C836.029 72.2015 835.795 72.4945 835.326 72.4945H811.678L811.853 175.176C811.853 175.762 811.619 176.055 811.15 176.055Z" fill="#F472B6"/>
<path d="M672.812 176.055H654.79C653.852 176.055 653.383 175.645 653.383 174.824L653.207 52.1868C653.207 51.2491 653.676 50.7802 654.614 50.7802H670.878L701.295 121.725L700.416 52.1868C700.416 51.2491 700.944 50.7802 701.999 50.7802H719.845C720.548 50.7802 720.9 51.2491 720.9 52.1868L721.076 175C721.076 175.703 720.782 176.055 720.196 176.055H704.372L673.163 109.769L674.482 174.648C674.482 175.586 673.925 176.055 672.812 176.055Z" fill="#44403C"/>
<path d="M600.495 176.055H542.297C541.829 176.055 541.594 175.762 541.594 175.176L541.77 51.4835C541.77 51.0146 542.004 50.7802 542.473 50.7802H600.319C600.788 50.7802 601.023 51.0733 601.023 51.6593V71.7912C601.023 72.2601 600.788 72.4945 600.319 72.4945H563.396V100.626H600.319C600.788 100.626 601.023 100.861 601.023 101.33L601.199 121.725C601.199 122.194 600.964 122.429 600.495 122.429H563.396V153.901H600.495C600.964 153.901 601.199 154.194 601.199 154.78V175.352C601.199 175.82 600.964 176.055 600.495 176.055Z" fill="#F59E0B"/>
<path d="M429.981 176.055H409.585C409.117 176.055 408.882 175.762 408.882 175.176L409.234 51.4835C409.234 51.0146 409.468 50.7802 409.937 50.7802H431.915C432.384 50.7802 432.794 51.0146 433.146 51.4835L449.585 75.2198L465.937 51.4835C466.289 51.0146 466.728 50.7802 467.256 50.7802H489.322C489.849 50.7802 490.113 51.0146 490.113 51.4835L490.464 175.176C490.464 175.762 490.23 176.055 489.761 176.055H469.366C468.897 176.055 468.662 175.762 468.662 175.176L468.486 83.3077L449.585 110.736L430.86 83.3077L430.684 175.176C430.684 175.762 430.45 176.055 429.981 176.055Z" fill="#FACC15"/>
<path d="M356.17 176.055H297.972C297.503 176.055 297.269 175.762 297.269 175.176L297.445 51.4835C297.445 51.0146 297.679 50.7802 298.148 50.7802H355.994C356.463 50.7802 356.697 51.0733 356.697 51.6593V71.7912C356.697 72.2601 356.463 72.4945 355.994 72.4945H319.071V100.626H355.994C356.463 100.626 356.697 100.861 356.697 101.33L356.873 121.725C356.873 122.194 356.639 122.429 356.17 122.429H319.071V153.901H356.17C356.639 153.901 356.873 154.194 356.873 154.78V175.352C356.873 175.82 356.639 176.055 356.17 176.055Z" fill="#93C5FD"/>
<path d="M248.601 176.055H190.403C189.934 176.055 189.7 175.762 189.7 175.176L189.875 51.6593C189.875 51.0733 190.168 50.7802 190.755 50.7802H210.798C211.385 50.7802 211.678 51.0733 211.678 51.6593L211.502 153.901H248.601C249.187 153.901 249.48 154.194 249.48 154.78V175.176C249.48 175.762 249.187 176.055 248.601 176.055Z" fill="#6EE7B7"/>
<path d="M136.988 176.055H78.7897C78.3209 176.055 78.0864 175.762 78.0864 175.176L78.2622 51.4835C78.2622 51.0146 78.4967 50.7802 78.9655 50.7802H136.812C137.281 50.7802 137.515 51.0733 137.515 51.6593V71.7912C137.515 72.2601 137.281 72.4945 136.812 72.4945H99.8886V100.626H136.812C137.281 100.626 137.515 100.861 137.515 101.33L137.691 121.725C137.691 122.194 137.456 122.429 136.988 122.429H99.8886V153.901H136.988C137.456 153.901 137.691 154.194 137.691 154.78V175.352C137.691 175.82 137.456 176.055 136.988 176.055Z" fill="#F87171"/>
</svg>
